<?xml version="1.0" encoding="UTF-8"?>
<svg id="Layer_1" xmlns="http://www.w3.org/2000/svg" version="1.1" viewBox="0 0 8192 1436">
  <!-- Generator: Adobe Illustrator 29.2.1, SVG Export Plug-In . SVG Version: 2.1.0 Build 116)  -->
  <path d="M9,689.2h595.6c4.9,0,8.9-4,8.9-8.9V84.7c0-8-9.7-12-15.3-6.4L2.6,674c-5.6,5.6-1.6,15.3,6.4,15.3h0Z"/>
  <path d="M9,746.7h595.6c4.9,0,8.9,4,8.9,8.9v595.6c0,8-9.7,12-15.3,6.4L2.6,762c-5.6-5.6-1.6-15.3,6.4-15.3h0Z"/>
  <path d="M1275.4,689.2h-595.6c-4.9,0-8.9-4-8.9-8.9V84.7c0-8,9.7-12,15.3-6.4l595.6,595.6c5.6,5.6,1.6,15.3-6.4,15.3h0Z"/>
  <path d="M1275.4,746.7h-595.6c-4.9,0-8.9,4-8.9,8.9v595.6c0,8,9.7,12,15.3,6.4l595.6-595.6c5.6-5.6,1.6-15.3-6.4-15.3h0Z"/>
  <path d="M1800.9,514.8v162h217.6v102.8h-217.6v171.3h245.4v105.5h-375V409.2h375v105.5h-245.4,0Z"/>
  <path d="M2596.2,593.9c37.6,38.6,56.5,92.4,56.5,161.6v300.9h-129.6v-283.3c0-40.7-10.2-72.1-30.6-94-20.4-21.9-48.2-32.9-83.3-32.9s-64,11-84.7,32.9-31,53.2-31,94v283.3h-129.6v-512.9h129.6v63.9c17.3-22.2,39.3-39.7,66.2-52.3,26.9-12.6,56.3-19,88.4-19,61.1,0,110.5,19.3,148.1,57.9h0Z"/>
  <path d="M3172.1,933.2h-257.4l-42.6,123.1h-136.1l232.4-647.2h150.9l232.4,647.2h-137l-42.6-123.1h0ZM3136.9,829.6l-93.5-270.4-93.5,270.4h187Z"/>
  <path d="M3437.8,660.6c21.6-39.8,51.5-70.7,89.8-92.6s82.1-32.9,131.5-32.9,116.2,15.9,157.9,47.7c41.7,31.8,69.6,76.4,83.8,133.8h-139.8c-7.4-22.2-19.9-39.7-37.5-52.3-17.6-12.6-39.4-19-65.3-19-37,0-66.4,13.4-88,40.3-21.6,26.9-32.4,65-32.4,114.3s10.8,86.6,32.4,113.4c21.6,26.9,50.9,40.3,88,40.3,52.5,0,86.7-23.5,102.8-70.4h139.8c-14.2,55.6-42.3,99.7-84.3,132.4-42,32.7-94.4,49.1-157.4,49.1s-93.2-10.9-131.5-32.9-68.2-52.8-89.8-92.6c-21.6-39.8-32.4-86.3-32.4-139.3s10.8-99.5,32.4-139.3h0Z"/>
  <path d="M3995.1,660.6c21.6-39.8,51.5-70.7,89.8-92.6s82.1-32.9,131.5-32.9,116.2,15.9,157.9,47.7c41.7,31.8,69.6,76.4,83.8,133.8h-139.8c-7.4-22.2-19.9-39.7-37.5-52.3-17.6-12.6-39.4-19-65.3-19-37,0-66.4,13.4-88,40.3-21.6,26.9-32.4,65-32.4,114.3s10.8,86.6,32.4,113.4c21.6,26.9,50.9,40.3,88,40.3,52.5,0,86.7-23.5,102.8-70.4h139.8c-14.2,55.6-42.3,99.7-84.3,132.4-42,32.7-94.4,49.1-157.4,49.1s-93.2-10.9-131.5-32.9-68.2-52.8-89.8-92.6c-21.6-39.8-32.4-86.3-32.4-139.3s10.8-99.5,32.4-139.3h0Z"/>
  <path d="M5026.5,838.8h-375c3.1,37,16,66,38.9,87s50.9,31.5,84.3,31.5c48.2,0,82.4-20.7,102.8-62h139.8c-14.8,49.4-43.2,90-85.2,121.8-42,31.8-93.5,47.7-154.6,47.7s-93.7-10.9-132.9-32.9c-39.2-21.9-69.8-52.9-91.7-93.1-21.9-40.1-32.9-86.4-32.9-138.9s10.8-99.7,32.4-139.8c21.6-40.1,51.9-71,90.7-92.6s83.6-32.4,134.3-32.4,92.4,10.5,131,31.5,68.5,50.8,89.8,89.3,32,82.9,32,132.9-1.2,35.2-3.7,50h0ZM4896,751.8c-.6-33.3-12.7-60-36.1-80.1-23.5-20.1-52.2-30.1-86.1-30.1s-59.1,9.7-81,29.2c-21.9,19.5-35.3,46.5-40.3,81h243.5Z"/>
  <path d="M5254.3,371.3v685.1h-129.6V371.3h129.6Z"/>
  <path d="M5855.2,838.8h-375c3.1,37,16,66,38.9,87s50.9,31.5,84.3,31.5c48.2,0,82.4-20.7,102.8-62h139.8c-14.8,49.4-43.2,90-85.2,121.8-42,31.8-93.5,47.7-154.6,47.7s-93.7-10.9-132.9-32.9c-39.2-21.9-69.8-52.9-91.7-93.1-21.9-40.1-32.9-86.4-32.9-138.9s10.8-99.7,32.4-139.8c21.6-40.1,51.9-71,90.7-92.6s83.6-32.4,134.3-32.4,92.4,10.5,131,31.5,68.5,50.8,89.8,89.3,32,82.9,32,132.9-1.2,35.2-3.7,50h0ZM5724.6,751.8c-.6-33.3-12.7-60-36.1-80.1-23.5-20.1-52.2-30.1-86.1-30.1s-59.1,9.7-81,29.2c-21.9,19.5-35.3,46.5-40.3,81h243.5Z"/>
  <path d="M6148.2,559.2c26.9-15.4,57.6-23.2,92.1-23.2v136.1h-34.3c-40.7,0-71.5,9.6-92.1,28.7-20.7,19.2-31,52.5-31,100v255.5h-129.6v-512.9h129.6v79.6c16.7-27.1,38.4-48.4,65.3-63.9h0Z"/>
  <path d="M6325,660.1c20.7-40.1,48.7-71,84.3-92.6s75.2-32.4,119-32.4,71.7,7.7,100.5,23.1,51.7,34.9,69,58.3v-73.2h130.5v512.9h-130.5v-75c-16.7,24.1-39.7,44-69,59.7s-63.1,23.6-101.4,23.6-82.6-11.1-118.1-33.3-63.6-53.5-84.3-94c-20.7-40.4-31-86.9-31-139.3s10.3-97.8,31-138h0ZM6679.2,718.9c-12.4-22.5-29-39.8-50-51.9-21-12-43.5-18.1-67.6-18.1s-46.3,5.9-66.7,17.6c-20.4,11.7-36.9,28.9-49.5,51.4-12.7,22.5-19,49.2-19,80.1s6.3,57.9,19,81c12.6,23.1,29.3,40.9,50,53.2,20.7,12.4,42.8,18.5,66.2,18.5s46.6-6,67.6-18,37.6-29.3,50-51.9c12.3-22.5,18.5-49.5,18.5-81s-6.2-58.5-18.5-81h0Z"/>
  <path d="M7106,649.9v248.1c0,17.3,4.2,29.8,12.5,37.5s22.4,11.6,42.1,11.6h60.2v109.3h-81.5c-109.3,0-163.9-53.1-163.9-159.2v-247.2h-61.1v-106.5h61.1v-126.8h130.5v126.8h114.8v106.5h-114.8,0Z"/>
  <path d="M7408.7,1031.9c-39.5-21.9-70.5-52.9-93.1-93.1-22.5-40.1-33.8-86.4-33.8-138.9s11.6-98.8,34.7-138.9c23.1-40.1,54.8-71.1,94.9-93,40.1-21.9,84.9-32.9,134.2-32.9s94.1,11,134.3,32.9c40.1,21.9,71.8,52.9,94.9,93,23.1,40.1,34.7,86.4,34.7,138.9s-11.9,98.8-35.7,138.9c-23.8,40.1-55.9,71.1-96.3,93.1-40.4,21.9-85.6,32.9-135.6,32.9s-93.8-10.9-133.3-32.9h0ZM7608.2,934.6c20.7-11.4,37.2-28.6,49.5-51.4,12.3-22.8,18.5-50.6,18.5-83.3,0-48.7-12.8-86.2-38.4-112.5s-56.9-39.4-94-39.4-68.1,13.1-93.1,39.4c-25,26.2-37.5,63.7-37.5,112.5s12.2,86.3,36.6,112.5,55.1,39.3,92.1,39.3,45.5-5.7,66.2-17.1h0Z"/>
  <path d="M8099.9,559.2c26.9-15.4,57.6-23.2,92.1-23.2v136.1h-34.3c-40.7,0-71.5,9.6-92.1,28.7-20.7,19.2-31,52.5-31,100v255.5h-129.6v-512.9h129.6v79.6c16.7-27.1,38.4-48.4,65.3-63.9h0Z"/>
</svg>