<?xml version="1.0" encoding="UTF-8"?>
<svg id="Layer_2" xmlns="http://www.w3.org/2000/svg" version="1.1" viewBox="0 0 2000 2000">
  <!-- Generator: Adobe Illustrator 29.2.1, SVG Export Plug-In . SVG Version: 2.1.0 Build 116)  -->
  <defs>
    <style>
      .st0 {
        fill: #ffc222;
      }
    </style>
  </defs>
  <path class="st0" d="M292.1,967.9h665.9c5.5,0,10-4.5,10-10V292.1c0-8.9-10.8-13.4-17.1-7.1L285,950.9c-6.3,6.3-1.8,17.1,7.1,17.1h0Z"/>
  <path class="st0" d="M292.1,1032.1h665.9c5.5,0,10,4.5,10,10v665.9c0,8.9-10.8,13.4-17.1,7.1l-665.9-665.9c-6.3-6.3-1.8-17.1,7.1-17.1Z"/>
  <path class="st0" d="M1707.9,967.9h-665.9c-5.5,0-10-4.5-10-10V292.1c0-8.9,10.8-13.4,17.1-7.1l665.9,665.9c6.3,6.3,1.8,17.1-7.1,17.1h0Z"/>
  <path class="st0" d="M1707.9,1032.1h-665.9c-5.5,0-10,4.5-10,10v665.9c0,8.9,10.8,13.4,17.1,7.1l665.9-665.9c6.3-6.3,1.8-17.1-7.1-17.1Z"/>
</svg>