<?xml version="1.0" encoding="UTF-8"?><svg id="Layer_2" xmlns="http://www.w3.org/2000/svg" viewBox="0 0 1435.88 1435.98"><defs><style>.cls-1{fill:#ffc222;}</style></defs><path class="cls-1" d="M10.04,685.84h665.9c5.5,0,10-4.5,10-10V10.04c0-8.9-10.8-13.4-17.1-7.1L2.94,668.84c-6.3,6.3-1.8,17.1,7.1,17.1h0v-.1Z"/><path class="cls-1" d="M10.04,750.04h665.9c5.5,0,10,4.5,10,10v665.9c0,8.9-10.8,13.4-17.1,7.1L2.94,767.14c-6.3-6.3-1.8-17.1,7.1-17.1Z"/><path class="cls-1" d="M1425.84,685.84h-665.9c-5.5,0-10-4.5-10-10V10.04c0-8.9,10.8-13.4,17.1-7.1l665.9,665.9c6.3,6.3,1.8,17.1-7.1,17.1h0v-.1Z"/><path class="cls-1" d="M1425.84,750.04h-665.9c-5.5,0-10,4.5-10,10v665.9c0,8.9,10.8,13.4,17.1,7.1l665.9-665.9c6.3-6.3,1.8-17.1-7.1-17.1Z"/></svg>